<svg width="466" height="169" viewBox="0 0 466 169" fill="none" xmlns="http://www.w3.org/2000/svg">
<path d="M49.8047 101.486H50.0771C51.0439 101.492 51.9258 101.718 52.7227 102.163C53.5195 102.608 54.1377 103.224 54.5771 104.009C55.0225 104.788 55.2451 105.661 55.2451 106.628C55.2451 107.601 55.0225 108.482 54.5771 109.273C54.1318 110.064 53.5166 110.683 52.7314 111.128C51.9463 111.567 51.0732 111.793 50.1123 111.805H49.8047V113.527H48.1699V111.805H47.9238C46.9453 111.805 46.0547 111.582 45.252 111.137C44.4551 110.691 43.834 110.076 43.3887 109.291C42.9492 108.506 42.7295 107.624 42.7295 106.646C42.7295 105.667 42.9492 104.785 43.3887 104C43.834 103.215 44.4551 102.6 45.252 102.154C46.0547 101.709 46.9453 101.486 47.9238 101.486H48.1699V99.6758H49.8047V101.486ZM47.9238 102.813C46.8223 102.813 45.9492 103.153 45.3047 103.833C44.666 104.507 44.3467 105.444 44.3467 106.646C44.3467 107.853 44.666 108.793 45.3047 109.467C45.9434 110.135 46.8223 110.469 47.9414 110.469H48.1699V102.813H47.9238ZM49.8047 102.813V110.469H50.0508C51.1699 110.469 52.043 110.126 52.6699 109.44C53.3027 108.749 53.6191 107.812 53.6191 106.628C53.6191 105.456 53.3027 104.527 52.6699 103.842C52.043 103.156 51.1582 102.813 50.0156 102.813H49.8047ZM60.2285 110.618L62.4434 103.49H64.1836L60.3604 114.468C59.7686 116.05 58.8281 116.841 57.5391 116.841L57.2314 116.814L56.625 116.7V115.382L57.0645 115.417C57.6152 115.417 58.043 115.306 58.3477 115.083C58.6582 114.86 58.9131 114.453 59.1123 113.861L59.4727 112.895L56.0801 103.49H57.8555L60.2285 110.618ZM72.709 104.809H69.5186V113H67.8926V104.809H64.7637V103.49H72.709V104.809ZM81.3662 103.49V113H79.7314V104.835H76.4971L76.3037 108.395C76.1982 110.029 75.9229 111.198 75.4775 111.901C75.0381 112.604 74.3379 112.971 73.377 113H72.7266V111.567L73.1924 111.532C73.7197 111.474 74.0977 111.169 74.3262 110.618C74.5547 110.067 74.7012 109.048 74.7656 107.56L74.9414 103.49H81.3662ZM91.2451 103.49V113H89.6104V109.3H87.1582L84.917 113H83.1592L85.5498 109.054C84.9404 108.831 84.4717 108.488 84.1436 108.025C83.8213 107.557 83.6602 107.012 83.6602 106.391C83.6602 105.523 83.9854 104.826 84.6357 104.299C85.2861 103.766 86.1562 103.496 87.2461 103.49H91.2451ZM85.2949 106.408C85.2949 106.871 85.4531 107.246 85.7695 107.533C86.0859 107.814 86.5049 107.958 87.0264 107.964H89.6104V104.809H87.2725C86.6689 104.809 86.1885 104.958 85.8311 105.257C85.4736 105.55 85.2949 105.934 85.2949 106.408ZM101.889 108.351C101.889 109.798 101.558 110.964 100.896 111.849C100.233 112.733 99.3369 113.176 98.2061 113.176C97.0518 113.176 96.1436 112.81 95.4814 112.077V116.656H93.8555V103.49H95.3408L95.4199 104.545C96.082 103.725 97.002 103.314 98.1797 103.314C99.3223 103.314 100.225 103.745 100.887 104.606C101.555 105.468 101.889 106.666 101.889 108.201V108.351ZM100.263 108.166C100.263 107.094 100.034 106.247 99.5771 105.626C99.1201 105.005 98.4932 104.694 97.6963 104.694C96.7119 104.694 95.9736 105.131 95.4814 106.004V110.548C95.9678 111.415 96.7119 111.849 97.7139 111.849C98.4932 111.849 99.1113 111.541 99.5684 110.926C100.031 110.305 100.263 109.385 100.263 108.166ZM112.242 111.849C112.822 111.849 113.329 111.673 113.763 111.321C114.196 110.97 114.437 110.53 114.483 110.003H116.021C115.992 110.548 115.805 111.066 115.459 111.559C115.113 112.051 114.65 112.443 114.07 112.736C113.496 113.029 112.887 113.176 112.242 113.176C110.947 113.176 109.916 112.745 109.148 111.884C108.387 111.017 108.006 109.833 108.006 108.333V108.061C108.006 107.135 108.176 106.312 108.516 105.591C108.855 104.87 109.342 104.311 109.975 103.912C110.613 103.514 111.366 103.314 112.233 103.314C113.3 103.314 114.185 103.634 114.888 104.272C115.597 104.911 115.975 105.74 116.021 106.76H114.483C114.437 106.145 114.202 105.641 113.78 105.248C113.364 104.85 112.849 104.65 112.233 104.65C111.407 104.65 110.766 104.949 110.309 105.547C109.857 106.139 109.632 106.997 109.632 108.122V108.43C109.632 109.525 109.857 110.369 110.309 110.961C110.76 111.553 111.404 111.849 112.242 111.849ZM125.276 108.948H124.09V113H122.455V103.49H124.09V107.516H125.153L128.353 103.49H130.321L126.56 108.061L130.638 113H128.572L125.276 108.948ZM131.411 108.157C131.411 107.226 131.593 106.388 131.956 105.644C132.325 104.899 132.835 104.325 133.485 103.921C134.142 103.517 134.889 103.314 135.727 103.314C137.021 103.314 138.067 103.763 138.864 104.659C139.667 105.556 140.068 106.748 140.068 108.236V108.351C140.068 109.276 139.89 110.108 139.532 110.847C139.181 111.579 138.674 112.15 138.012 112.561C137.355 112.971 136.6 113.176 135.744 113.176C134.455 113.176 133.409 112.728 132.606 111.831C131.81 110.935 131.411 109.748 131.411 108.271V108.157ZM133.046 108.351C133.046 109.405 133.289 110.252 133.775 110.891C134.268 111.529 134.924 111.849 135.744 111.849C136.57 111.849 137.227 111.526 137.713 110.882C138.199 110.231 138.442 109.323 138.442 108.157C138.442 107.114 138.193 106.271 137.695 105.626C137.203 104.976 136.547 104.65 135.727 104.65C134.924 104.65 134.276 104.97 133.784 105.608C133.292 106.247 133.046 107.161 133.046 108.351ZM141.396 111.673L141.958 110.979C142.591 110.158 142.951 108.928 143.039 107.287L143.188 103.49H149.314V111.673H150.536V115.795H148.91V113H142.274V115.795H140.648L140.657 111.673H141.396ZM143.32 111.673H147.688V104.993H144.762L144.665 107.261C144.565 109.153 144.117 110.624 143.32 111.673ZM151.907 108.157C151.907 107.226 152.089 106.388 152.452 105.644C152.821 104.899 153.331 104.325 153.981 103.921C154.638 103.517 155.385 103.314 156.223 103.314C157.518 103.314 158.563 103.763 159.36 104.659C160.163 105.556 160.564 106.748 160.564 108.236V108.351C160.564 109.276 160.386 110.108 160.028 110.847C159.677 111.579 159.17 112.15 158.508 112.561C157.852 112.971 157.096 113.176 156.24 113.176C154.951 113.176 153.905 112.728 153.103 111.831C152.306 110.935 151.907 109.748 151.907 108.271V108.157ZM153.542 108.351C153.542 109.405 153.785 110.252 154.271 110.891C154.764 111.529 155.42 111.849 156.24 111.849C157.066 111.849 157.723 111.526 158.209 110.882C158.695 110.231 158.938 109.323 158.938 108.157C158.938 107.114 158.689 106.271 158.191 105.626C157.699 104.976 157.043 104.65 156.223 104.65C155.42 104.65 154.772 104.97 154.28 105.608C153.788 106.247 153.542 107.161 153.542 108.351ZM168.079 110.847L171.313 103.49H173.344V113H171.718V106.083L168.642 113H167.517L164.379 105.934V113H162.753V103.49H164.862L168.079 110.847ZM180.349 111.673L180.911 110.979C181.544 110.158 181.904 108.928 181.992 107.287L182.142 103.49H188.268V111.673H189.489V115.795H187.863V113H181.228V115.795H179.602L179.61 111.673H180.349ZM182.273 111.673H186.642V104.993H183.715L183.618 107.261C183.519 109.153 183.07 110.624 182.273 111.673ZM199.087 103.49V113H197.452V104.835H194.218L194.024 108.395C193.919 110.029 193.644 111.198 193.198 111.901C192.759 112.604 192.059 112.971 191.098 113H190.447V111.567L190.913 111.532C191.44 111.474 191.818 111.169 192.047 110.618C192.275 110.067 192.422 109.048 192.486 107.56L192.662 103.49H199.087ZM208.966 103.49V113H207.331V109.3H204.879L202.638 113H200.88L203.271 109.054C202.661 108.831 202.192 108.488 201.864 108.025C201.542 107.557 201.381 107.012 201.381 106.391C201.381 105.523 201.706 104.826 202.356 104.299C203.007 103.766 203.877 103.496 204.967 103.49H208.966ZM203.016 106.408C203.016 106.871 203.174 107.246 203.49 107.533C203.807 107.814 204.226 107.958 204.747 107.964H207.331V104.809H204.993C204.39 104.809 203.909 104.958 203.552 105.257C203.194 105.55 203.016 105.934 203.016 106.408ZM221.271 106.092C221.271 105.646 221.101 105.295 220.761 105.037C220.421 104.773 219.955 104.642 219.363 104.642C218.789 104.642 218.309 104.791 217.922 105.09C217.541 105.389 217.351 105.74 217.351 106.145H215.733C215.733 105.318 216.079 104.642 216.771 104.114C217.462 103.587 218.326 103.323 219.363 103.323C220.477 103.323 221.344 103.563 221.965 104.044C222.586 104.519 222.896 105.198 222.896 106.083C222.896 106.511 222.768 106.903 222.51 107.261C222.252 107.618 221.886 107.902 221.411 108.113C222.519 108.488 223.072 109.227 223.072 110.328C223.072 111.201 222.735 111.893 222.062 112.402C221.388 112.912 220.488 113.167 219.363 113.167C218.268 113.167 217.362 112.9 216.647 112.367C215.938 111.828 215.584 111.102 215.584 110.188H217.201C217.201 110.65 217.406 111.049 217.816 111.383C218.232 111.711 218.748 111.875 219.363 111.875C219.984 111.875 220.485 111.731 220.866 111.444C221.247 111.157 221.438 110.785 221.438 110.328C221.438 109.795 221.276 109.414 220.954 109.186C220.638 108.951 220.143 108.834 219.469 108.834H217.843V107.463H219.609C220.717 107.434 221.271 106.977 221.271 106.092ZM231.053 113C230.959 112.812 230.883 112.479 230.824 111.998C230.068 112.783 229.166 113.176 228.117 113.176C227.18 113.176 226.409 112.912 225.806 112.385C225.208 111.852 224.909 111.178 224.909 110.363C224.909 109.373 225.284 108.605 226.034 108.061C226.79 107.51 227.851 107.234 229.216 107.234H230.798V106.487C230.798 105.919 230.628 105.468 230.288 105.134C229.948 104.794 229.447 104.624 228.785 104.624C228.205 104.624 227.719 104.771 227.326 105.063C226.934 105.356 226.737 105.711 226.737 106.127H225.103C225.103 105.652 225.27 105.195 225.604 104.756C225.943 104.311 226.4 103.959 226.975 103.701C227.555 103.443 228.19 103.314 228.882 103.314C229.978 103.314 230.836 103.59 231.457 104.141C232.078 104.686 232.4 105.438 232.424 106.399V110.776C232.424 111.649 232.535 112.344 232.758 112.859V113H231.053ZM228.354 111.761C228.864 111.761 229.348 111.629 229.805 111.365C230.262 111.102 230.593 110.759 230.798 110.337V108.386H229.523C227.531 108.386 226.535 108.969 226.535 110.135C226.535 110.645 226.705 111.043 227.045 111.33C227.385 111.617 227.821 111.761 228.354 111.761ZM241.116 104.835H236.73V113H235.096V103.49H241.116V104.835ZM250.564 108.351C250.564 109.798 250.233 110.964 249.571 111.849C248.909 112.733 248.013 113.176 246.882 113.176C245.728 113.176 244.819 112.81 244.157 112.077V116.656H242.531V103.49H244.017L244.096 104.545C244.758 103.725 245.678 103.314 246.855 103.314C247.998 103.314 248.9 103.745 249.562 104.606C250.23 105.468 250.564 106.666 250.564 108.201V108.351ZM248.938 108.166C248.938 107.094 248.71 106.247 248.253 105.626C247.796 105.005 247.169 104.694 246.372 104.694C245.388 104.694 244.649 105.131 244.157 106.004V110.548C244.644 111.415 245.388 111.849 246.39 111.849C247.169 111.849 247.787 111.541 248.244 110.926C248.707 110.305 248.938 109.385 248.938 108.166ZM255.645 110.618L257.859 103.49H259.6L255.776 114.468C255.185 116.05 254.244 116.841 252.955 116.841L252.647 116.814L252.041 116.7V115.382L252.48 115.417C253.031 115.417 253.459 115.306 253.764 115.083C254.074 114.86 254.329 114.453 254.528 113.861L254.889 112.895L251.496 103.49H253.271L255.645 110.618ZM266.288 106.092C266.288 105.646 266.118 105.295 265.778 105.037C265.438 104.773 264.973 104.642 264.381 104.642C263.807 104.642 263.326 104.791 262.939 105.09C262.559 105.389 262.368 105.74 262.368 106.145H260.751C260.751 105.318 261.097 104.642 261.788 104.114C262.479 103.587 263.344 103.323 264.381 103.323C265.494 103.323 266.361 103.563 266.982 104.044C267.604 104.519 267.914 105.198 267.914 106.083C267.914 106.511 267.785 106.903 267.527 107.261C267.27 107.618 266.903 107.902 266.429 108.113C267.536 108.488 268.09 109.227 268.09 110.328C268.09 111.201 267.753 111.893 267.079 112.402C266.405 112.912 265.506 113.167 264.381 113.167C263.285 113.167 262.38 112.9 261.665 112.367C260.956 111.828 260.602 111.102 260.602 110.188H262.219C262.219 110.65 262.424 111.049 262.834 111.383C263.25 111.711 263.766 111.875 264.381 111.875C265.002 111.875 265.503 111.731 265.884 111.444C266.265 111.157 266.455 110.785 266.455 110.328C266.455 109.795 266.294 109.414 265.972 109.186C265.655 108.951 265.16 108.834 264.486 108.834H262.86V107.463H264.627C265.734 107.434 266.288 106.977 266.288 106.092ZM273.161 108.948H271.975V113H270.34V103.49H271.975V107.516H273.038L276.237 103.49H278.206L274.444 108.061L278.522 113H276.457L273.161 108.948ZM286.072 103.49H287.698V113H286.072V106.065L281.687 113H280.061V103.49H281.687V110.434L286.072 103.49ZM300.926 103.49H302.552V113H300.926V106.065L296.54 113H294.914V103.49H296.54V110.434L300.926 103.49ZM311.306 104.835H306.92V113H305.285V103.49H311.306V104.835ZM320.754 108.351C320.754 109.798 320.423 110.964 319.761 111.849C319.099 112.733 318.202 113.176 317.071 113.176C315.917 113.176 315.009 112.81 314.347 112.077V116.656H312.721V103.49H314.206L314.285 104.545C314.947 103.725 315.867 103.314 317.045 103.314C318.188 103.314 319.09 103.745 319.752 104.606C320.42 105.468 320.754 106.666 320.754 108.201V108.351ZM319.128 108.166C319.128 107.094 318.899 106.247 318.442 105.626C317.985 105.005 317.358 104.694 316.562 104.694C315.577 104.694 314.839 105.131 314.347 106.004V110.548C314.833 111.415 315.577 111.849 316.579 111.849C317.358 111.849 317.977 111.541 318.434 110.926C318.896 110.305 319.128 109.385 319.128 108.166ZM324.604 106.769H327.073C328.151 106.78 329.004 107.062 329.631 107.612C330.258 108.163 330.571 108.91 330.571 109.854C330.571 110.803 330.249 111.564 329.604 112.139C328.96 112.713 328.093 113 327.003 113H322.978V103.49H324.604V106.769ZM333.964 113H332.329V103.49H333.964V113ZM324.604 108.096V111.673H327.021C327.63 111.673 328.102 111.518 328.436 111.207C328.77 110.891 328.937 110.46 328.937 109.915C328.937 109.388 328.772 108.957 328.444 108.623C328.122 108.283 327.668 108.107 327.082 108.096H324.604ZM347.42 103.49H349.046V113H347.42V106.065L343.034 113H341.408V103.49H343.034V110.434L347.42 103.49ZM356.042 111.673L356.604 110.979C357.237 110.158 357.598 108.928 357.686 107.287L357.835 103.49H363.961V111.673H365.183V115.795H363.557V113H356.921V115.795H355.295L355.304 111.673H356.042ZM357.967 111.673H362.335V104.993H359.408L359.312 107.261C359.212 109.153 358.764 110.624 357.967 111.673ZM373.137 103.49H374.763V113H373.137V106.065L368.751 113H367.125V103.49H368.751V110.434L373.137 103.49ZM381.188 111.849C381.768 111.849 382.274 111.673 382.708 111.321C383.142 110.97 383.382 110.53 383.429 110.003H384.967C384.938 110.548 384.75 111.066 384.404 111.559C384.059 112.051 383.596 112.443 383.016 112.736C382.441 113.029 381.832 113.176 381.188 113.176C379.893 113.176 378.861 112.745 378.094 111.884C377.332 111.017 376.951 109.833 376.951 108.333V108.061C376.951 107.135 377.121 106.312 377.461 105.591C377.801 104.87 378.287 104.311 378.92 103.912C379.559 103.514 380.312 103.314 381.179 103.314C382.245 103.314 383.13 103.634 383.833 104.272C384.542 104.911 384.92 105.74 384.967 106.76H383.429C383.382 106.145 383.147 105.641 382.726 105.248C382.31 104.85 381.794 104.65 381.179 104.65C380.353 104.65 379.711 104.949 379.254 105.547C378.803 106.139 378.577 106.997 378.577 108.122V108.43C378.577 109.525 378.803 110.369 379.254 110.961C379.705 111.553 380.35 111.849 381.188 111.849ZM389.757 108.948H388.57V113H386.936V103.49H388.57V107.516H389.634L392.833 103.49H394.802L391.04 108.061L395.118 113H393.053L389.757 108.948ZM402.387 113C402.293 112.812 402.217 112.479 402.158 111.998C401.402 112.783 400.5 113.176 399.451 113.176C398.514 113.176 397.743 112.912 397.14 112.385C396.542 111.852 396.243 111.178 396.243 110.363C396.243 109.373 396.618 108.605 397.368 108.061C398.124 107.51 399.185 107.234 400.55 107.234H402.132V106.487C402.132 105.919 401.962 105.468 401.622 105.134C401.282 104.794 400.781 104.624 400.119 104.624C399.539 104.624 399.053 104.771 398.66 105.063C398.268 105.356 398.071 105.711 398.071 106.127H396.437C396.437 105.652 396.604 105.195 396.938 104.756C397.277 104.311 397.734 103.959 398.309 103.701C398.889 103.443 399.524 103.314 400.216 103.314C401.312 103.314 402.17 103.59 402.791 104.141C403.412 104.686 403.734 105.438 403.758 106.399V110.776C403.758 111.649 403.869 112.344 404.092 112.859V113H402.387ZM399.688 111.761C400.198 111.761 400.682 111.629 401.139 111.365C401.596 111.102 401.927 110.759 402.132 110.337V108.386H400.857C398.865 108.386 397.869 108.969 397.869 110.135C397.869 110.645 398.039 111.043 398.379 111.33C398.719 111.617 399.155 111.761 399.688 111.761ZM411.782 110.847L415.017 103.49H417.047V113H415.421V106.083L412.345 113H411.22L408.082 105.934V113H406.456V103.49H408.565L411.782 110.847ZM425.818 103.49H427.444V113H425.818V106.065L421.433 113H419.807V103.49H421.433V110.434L425.818 103.49ZM434.458 107.806C434.458 106.481 434.634 105.21 434.985 103.991C435.343 102.772 435.873 101.665 436.576 100.669C437.279 99.6729 438.009 98.9697 438.765 98.5596L439.099 99.6318C438.243 100.288 437.54 101.29 436.989 102.638C436.444 103.985 436.146 105.494 436.093 107.164L436.084 107.911C436.084 110.173 436.497 112.136 437.323 113.8C437.821 114.796 438.413 115.575 439.099 116.138L438.765 117.131C437.985 116.697 437.241 115.971 436.532 114.951C435.149 112.959 434.458 110.577 434.458 107.806ZM448.705 108.351C448.705 109.798 448.374 110.964 447.712 111.849C447.05 112.733 446.153 113.176 445.022 113.176C443.868 113.176 442.96 112.81 442.298 112.077V116.656H440.672V103.49H442.157L442.236 104.545C442.898 103.725 443.818 103.314 444.996 103.314C446.139 103.314 447.041 103.745 447.703 104.606C448.371 105.468 448.705 106.666 448.705 108.201V108.351ZM447.079 108.166C447.079 107.094 446.851 106.247 446.394 105.626C445.937 105.005 445.31 104.694 444.513 104.694C443.528 104.694 442.79 105.131 442.298 106.004V110.548C442.784 111.415 443.528 111.849 444.53 111.849C445.31 111.849 445.928 111.541 446.385 110.926C446.848 110.305 447.079 109.385 447.079 108.166ZM454.594 111.849C455.174 111.849 455.681 111.673 456.114 111.321C456.548 110.97 456.788 110.53 456.835 110.003H458.373C458.344 110.548 458.156 111.066 457.811 111.559C457.465 112.051 457.002 112.443 456.422 112.736C455.848 113.029 455.238 113.176 454.594 113.176C453.299 113.176 452.268 112.745 451.5 111.884C450.738 111.017 450.357 109.833 450.357 108.333V108.061C450.357 107.135 450.527 106.312 450.867 105.591C451.207 104.87 451.693 104.311 452.326 103.912C452.965 103.514 453.718 103.314 454.585 103.314C455.651 103.314 456.536 103.634 457.239 104.272C457.948 104.911 458.326 105.74 458.373 106.76H456.835C456.788 106.145 456.554 105.641 456.132 105.248C455.716 104.85 455.2 104.65 454.585 104.65C453.759 104.65 453.117 104.949 452.66 105.547C452.209 106.139 451.983 106.997 451.983 108.122V108.43C451.983 109.525 452.209 110.369 452.66 110.961C453.111 111.553 453.756 111.849 454.594 111.849ZM463.954 107.894C463.954 109.2 463.781 110.454 463.436 111.655C463.096 112.851 462.571 113.955 461.862 114.969C461.159 115.982 460.421 116.703 459.647 117.131L459.305 116.138C460.207 115.446 460.931 114.374 461.476 112.921C462.026 111.462 462.308 109.845 462.319 108.069V107.788C462.319 106.558 462.19 105.415 461.933 104.36C461.675 103.3 461.314 102.351 460.852 101.513C460.395 100.675 459.879 100.021 459.305 99.5527L459.647 98.5596C460.421 98.9873 461.156 99.7021 461.854 100.704C462.557 101.706 463.081 102.811 463.427 104.018C463.778 105.225 463.954 106.517 463.954 107.894Z" fill="white"/>
<g clip-path="url(#clip0_14_342)">
<path d="M25.3333 94H6.66667C5.18667 94 4 95.2 4 96.6667V115.333C4 116.8 5.18667 118 6.66667 118H25.3333C26.8 118 28 116.8 28 115.333V96.6667C28 95.2 26.8133 94 25.3333 94ZM25.3333 115.333H6.66667V99.3333H25.3333V115.333ZM22.6667 106H9.33333V103.333H22.6667V106ZM17.3333 111.333H9.33333V108.667H17.3333V111.333Z" fill="#F8F200"/>
</g>
<path d="M49.8047 54.4863H50.0771C51.0439 54.4922 51.9258 54.7178 52.7227 55.1631C53.5195 55.6084 54.1377 56.2236 54.5771 57.0088C55.0225 57.7881 55.2451 58.6611 55.2451 59.6279C55.2451 60.6006 55.0225 61.4824 54.5771 62.2734C54.1318 63.0645 53.5166 63.6826 52.7314 64.1279C51.9463 64.5674 51.0732 64.793 50.1123 64.8047H49.8047V66.5273H48.1699V64.8047H47.9238C46.9453 64.8047 46.0547 64.582 45.252 64.1367C44.4551 63.6914 43.834 63.0762 43.3887 62.291C42.9492 61.5059 42.7295 60.624 42.7295 59.6455C42.7295 58.667 42.9492 57.7852 43.3887 57C43.834 56.2148 44.4551 55.5996 45.252 55.1543C46.0547 54.709 46.9453 54.4863 47.9238 54.4863H48.1699V52.6758H49.8047V54.4863ZM47.9238 55.8135C46.8223 55.8135 45.9492 56.1533 45.3047 56.833C44.666 57.5068 44.3467 58.4443 44.3467 59.6455C44.3467 60.8525 44.666 61.793 45.3047 62.4668C45.9434 63.1348 46.8223 63.4688 47.9414 63.4688H48.1699V55.8135H47.9238ZM49.8047 55.8135V63.4688H50.0508C51.1699 63.4688 52.043 63.126 52.6699 62.4404C53.3027 61.749 53.6191 60.8115 53.6191 59.6279C53.6191 58.4561 53.3027 57.5273 52.6699 56.8418C52.043 56.1562 51.1582 55.8135 50.0156 55.8135H49.8047ZM60.2285 63.6182L62.4434 56.4902H64.1836L60.3604 67.4678C59.7686 69.0498 58.8281 69.8408 57.5391 69.8408L57.2314 69.8145L56.625 69.7002V68.3818L57.0645 68.417C57.6152 68.417 58.043 68.3057 58.3477 68.083C58.6582 67.8604 58.9131 67.4531 59.1123 66.8613L59.4727 65.8945L56.0801 56.4902H57.8555L60.2285 63.6182ZM72.709 57.8086H69.5186V66H67.8926V57.8086H64.7637V56.4902H72.709V57.8086ZM81.3662 56.4902V66H79.7314V57.835H76.4971L76.3037 61.3945C76.1982 63.0293 75.9229 64.1982 75.4775 64.9014C75.0381 65.6045 74.3379 65.9707 73.377 66H72.7266V64.5674L73.1924 64.5322C73.7197 64.4736 74.0977 64.1689 74.3262 63.6182C74.5547 63.0674 74.7012 62.0479 74.7656 60.5596L74.9414 56.4902H81.3662ZM91.2451 56.4902V66H89.6104V62.2998H87.1582L84.917 66H83.1592L85.5498 62.0537C84.9404 61.8311 84.4717 61.4883 84.1436 61.0254C83.8213 60.5566 83.6602 60.0117 83.6602 59.3906C83.6602 58.5234 83.9854 57.8262 84.6357 57.2988C85.2861 56.7656 86.1562 56.4961 87.2461 56.4902H91.2451ZM85.2949 59.4082C85.2949 59.8711 85.4531 60.2461 85.7695 60.5332C86.0859 60.8145 86.5049 60.958 87.0264 60.9639H89.6104V57.8086H87.2725C86.6689 57.8086 86.1885 57.958 85.8311 58.2568C85.4736 58.5498 85.2949 58.9336 85.2949 59.4082ZM101.889 61.3506C101.889 62.7979 101.558 63.9639 100.896 64.8486C100.233 65.7334 99.3369 66.1758 98.2061 66.1758C97.0518 66.1758 96.1436 65.8096 95.4814 65.0771V69.6562H93.8555V56.4902H95.3408L95.4199 57.5449C96.082 56.7246 97.002 56.3145 98.1797 56.3145C99.3223 56.3145 100.225 56.7451 100.887 57.6064C101.555 58.4678 101.889 59.666 101.889 61.2012V61.3506ZM100.263 61.166C100.263 60.0938 100.034 59.2471 99.5771 58.626C99.1201 58.0049 98.4932 57.6943 97.6963 57.6943C96.7119 57.6943 95.9736 58.1309 95.4814 59.0039V63.5479C95.9678 64.415 96.7119 64.8486 97.7139 64.8486C98.4932 64.8486 99.1113 64.541 99.5684 63.9258C100.031 63.3047 100.263 62.3848 100.263 61.166ZM112.242 64.8486C112.822 64.8486 113.329 64.6729 113.763 64.3213C114.196 63.9697 114.437 63.5303 114.483 63.0029H116.021C115.992 63.5479 115.805 64.0664 115.459 64.5586C115.113 65.0508 114.65 65.4434 114.07 65.7363C113.496 66.0293 112.887 66.1758 112.242 66.1758C110.947 66.1758 109.916 65.7451 109.148 64.8838C108.387 64.0166 108.006 62.833 108.006 61.333V61.0605C108.006 60.1348 108.176 59.3115 108.516 58.5908C108.855 57.8701 109.342 57.3105 109.975 56.9121C110.613 56.5137 111.366 56.3145 112.233 56.3145C113.3 56.3145 114.185 56.6338 114.888 57.2725C115.597 57.9111 115.975 58.7402 116.021 59.7598H114.483C114.437 59.1445 114.202 58.6406 113.78 58.248C113.364 57.8496 112.849 57.6504 112.233 57.6504C111.407 57.6504 110.766 57.9492 110.309 58.5469C109.857 59.1387 109.632 59.9971 109.632 61.1221V61.4297C109.632 62.5254 109.857 63.3691 110.309 63.9609C110.76 64.5527 111.404 64.8486 112.242 64.8486ZM128.467 56.4902H130.093V66H128.467V59.0654L124.081 66H122.455V56.4902H124.081V63.4336L128.467 56.4902ZM138.847 57.835H134.461V66H132.826V56.4902H138.847V57.835ZM148.295 61.3506C148.295 62.7979 147.964 63.9639 147.302 64.8486C146.64 65.7334 145.743 66.1758 144.612 66.1758C143.458 66.1758 142.55 65.8096 141.888 65.0771V69.6562H140.262V56.4902H141.747L141.826 57.5449C142.488 56.7246 143.408 56.3145 144.586 56.3145C145.729 56.3145 146.631 56.7451 147.293 57.6064C147.961 58.4678 148.295 59.666 148.295 61.2012V61.3506ZM146.669 61.166C146.669 60.0938 146.44 59.2471 145.983 58.626C145.526 58.0049 144.899 57.6943 144.103 57.6943C143.118 57.6943 142.38 58.1309 141.888 59.0039V63.5479C142.374 64.415 143.118 64.8486 144.12 64.8486C144.899 64.8486 145.518 64.541 145.975 63.9258C146.438 63.3047 146.669 62.3848 146.669 61.166ZM149.938 61.1572C149.938 60.2256 150.12 59.3877 150.483 58.6436C150.853 57.8994 151.362 57.3252 152.013 56.9209C152.669 56.5166 153.416 56.3145 154.254 56.3145C155.549 56.3145 156.595 56.7627 157.392 57.6592C158.194 58.5557 158.596 59.748 158.596 61.2363V61.3506C158.596 62.2764 158.417 63.1084 158.06 63.8467C157.708 64.5791 157.201 65.1504 156.539 65.5605C155.883 65.9707 155.127 66.1758 154.271 66.1758C152.982 66.1758 151.937 65.7275 151.134 64.8311C150.337 63.9346 149.938 62.748 149.938 61.2715V61.1572ZM151.573 61.3506C151.573 62.4053 151.816 63.252 152.303 63.8906C152.795 64.5293 153.451 64.8486 154.271 64.8486C155.098 64.8486 155.754 64.5264 156.24 63.8818C156.727 63.2314 156.97 62.3232 156.97 61.1572C156.97 60.1143 156.721 59.2705 156.223 58.626C155.73 57.9756 155.074 57.6504 154.254 57.6504C153.451 57.6504 152.804 57.9697 152.312 58.6084C151.819 59.2471 151.573 60.1611 151.573 61.3506ZM160.784 66V56.4902H164.493C165.759 56.4902 166.729 56.7129 167.402 57.1582C168.082 57.5977 168.422 58.2451 168.422 59.1006C168.422 59.54 168.29 59.9385 168.026 60.2959C167.763 60.6475 167.373 60.917 166.857 61.1045C167.432 61.2393 167.892 61.5029 168.237 61.8955C168.589 62.2881 168.765 62.7568 168.765 63.3018C168.765 64.1748 168.442 64.8428 167.798 65.3057C167.159 65.7686 166.254 66 165.082 66H160.784ZM162.41 61.8252V64.6904H165.1C165.779 64.6904 166.286 64.5645 166.62 64.3125C166.96 64.0605 167.13 63.7061 167.13 63.249C167.13 62.2998 166.433 61.8252 165.038 61.8252H162.41ZM162.41 60.5244H164.511C166.034 60.5244 166.796 60.0791 166.796 59.1885C166.796 58.2979 166.075 57.8379 164.634 57.8086H162.41V60.5244ZM172.693 59.7686H175.163C176.241 59.7803 177.094 60.0615 177.721 60.6123C178.348 61.1631 178.661 61.9102 178.661 62.8535C178.661 63.8027 178.339 64.5645 177.694 65.1387C177.05 65.7129 176.183 66 175.093 66H171.067V56.4902H172.693V59.7686ZM182.054 66H180.419V56.4902H182.054V66ZM172.693 61.0957V64.6729H175.11C175.72 64.6729 176.191 64.5176 176.525 64.207C176.859 63.8906 177.026 63.46 177.026 62.915C177.026 62.3877 176.862 61.957 176.534 61.623C176.212 61.2832 175.758 61.1074 175.172 61.0957H172.693ZM190.368 63.8467L193.603 56.4902H195.633V66H194.007V59.083L190.931 66H189.806L186.668 58.9336V66H185.042V56.4902H187.151L190.368 63.8467ZM204.404 56.4902H206.03V66H204.404V59.0654L200.019 66H198.393V56.4902H200.019V63.4336L204.404 56.4902ZM213.026 64.6729L213.589 63.9785C214.222 63.1582 214.582 61.9277 214.67 60.2871L214.819 56.4902H220.945V64.6729H222.167V68.7949H220.541V66H213.905V68.7949H212.279L212.288 64.6729H213.026ZM214.951 64.6729H219.319V57.9932H216.393L216.296 60.2607C216.196 62.1533 215.748 63.624 214.951 64.6729ZM230.121 56.4902H231.747V66H230.121V59.0654L225.735 66H224.109V56.4902H225.735V63.4336L230.121 56.4902ZM238.172 64.8486C238.752 64.8486 239.259 64.6729 239.692 64.3213C240.126 63.9697 240.366 63.5303 240.413 63.0029H241.951C241.922 63.5479 241.734 64.0664 241.389 64.5586C241.043 65.0508 240.58 65.4434 240 65.7363C239.426 66.0293 238.816 66.1758 238.172 66.1758C236.877 66.1758 235.846 65.7451 235.078 64.8838C234.316 64.0166 233.936 62.833 233.936 61.333V61.0605C233.936 60.1348 234.105 59.3115 234.445 58.5908C234.785 57.8701 235.271 57.3105 235.904 56.9121C236.543 56.5137 237.296 56.3145 238.163 56.3145C239.229 56.3145 240.114 56.6338 240.817 57.2725C241.526 57.9111 241.904 58.7402 241.951 59.7598H240.413C240.366 59.1445 240.132 58.6406 239.71 58.248C239.294 57.8496 238.778 57.6504 238.163 57.6504C237.337 57.6504 236.695 57.9492 236.238 58.5469C235.787 59.1387 235.562 59.9971 235.562 61.1221V61.4297C235.562 62.5254 235.787 63.3691 236.238 63.9609C236.689 64.5527 237.334 64.8486 238.172 64.8486ZM246.741 61.9482H245.555V66H243.92V56.4902H245.555V60.5156H246.618L249.817 56.4902H251.786L248.024 61.0605L252.103 66H250.037L246.741 61.9482ZM259.371 66C259.277 65.8125 259.201 65.4785 259.143 64.998C258.387 65.7832 257.484 66.1758 256.436 66.1758C255.498 66.1758 254.728 65.9121 254.124 65.3848C253.526 64.8516 253.228 64.1777 253.228 63.3633C253.228 62.373 253.603 61.6055 254.353 61.0605C255.108 60.5098 256.169 60.2344 257.534 60.2344H259.116V59.4873C259.116 58.9189 258.946 58.4678 258.606 58.1338C258.267 57.7939 257.766 57.624 257.104 57.624C256.523 57.624 256.037 57.7705 255.645 58.0635C255.252 58.3564 255.056 58.7109 255.056 59.127H253.421C253.421 58.6523 253.588 58.1953 253.922 57.7559C254.262 57.3105 254.719 56.959 255.293 56.7012C255.873 56.4434 256.509 56.3145 257.2 56.3145C258.296 56.3145 259.154 56.5898 259.775 57.1406C260.396 57.6855 260.719 58.4385 260.742 59.3994V63.7764C260.742 64.6494 260.854 65.3438 261.076 65.8594V66H259.371ZM256.673 64.7607C257.183 64.7607 257.666 64.6289 258.123 64.3652C258.58 64.1016 258.911 63.7588 259.116 63.3369V61.3857H257.842C255.85 61.3857 254.854 61.9688 254.854 63.1348C254.854 63.6445 255.023 64.043 255.363 64.3301C255.703 64.6172 256.14 64.7607 256.673 64.7607ZM268.767 63.8467L272.001 56.4902H274.031V66H272.405V59.083L269.329 66H268.204L265.066 58.9336V66H263.44V56.4902H265.55L268.767 63.8467ZM282.803 56.4902H284.429V66H282.803V59.0654L278.417 66H276.791V56.4902H278.417V63.4336L282.803 56.4902Z" fill="white"/>
<g clip-path="url(#clip1_14_342)">
<path fill-rule="evenodd" clip-rule="evenodd" d="M29.3334 59.0001C29.3334 66.3639 23.3639 72.3334 16.0001 72.3334C8.63628 72.3334 2.66675 66.3639 2.66675 59.0001C2.66675 51.6363 8.63628 45.6667 16.0001 45.6667C23.3639 45.6667 29.3334 51.6363 29.3334 59.0001ZM19 59.0001C19 60.6569 17.6569 62.0001 16 62.0001C14.3431 62.0001 13 60.6569 13 59.0001C13 57.3432 14.3431 56.0001 16 56.0001C17.6569 56.0001 19 57.3432 19 59.0001Z" fill="#F8F200"/>
</g>
<path d="M52.8984 155.939C52.7402 157.293 52.2393 158.339 51.3955 159.077C50.5576 159.81 49.4414 160.176 48.0469 160.176C46.5352 160.176 45.3223 159.634 44.4082 158.55C43.5 157.466 43.0459 156.016 43.0459 154.199V152.969C43.0459 151.779 43.2568 150.733 43.6787 149.831C44.1064 148.929 44.71 148.237 45.4893 147.757C46.2686 147.271 47.1709 147.027 48.1963 147.027C49.5557 147.027 50.6455 147.408 51.4658 148.17C52.2861 148.926 52.7637 149.975 52.8984 151.316H51.2021C51.0557 150.297 50.7363 149.559 50.2441 149.102C49.7578 148.645 49.0752 148.416 48.1963 148.416C47.1182 148.416 46.2715 148.814 45.6562 149.611C45.0469 150.408 44.7422 151.542 44.7422 153.013V154.252C44.7422 155.641 45.0322 156.745 45.6123 157.565C46.1924 158.386 47.0039 158.796 48.0469 158.796C48.9844 158.796 49.7021 158.585 50.2002 158.163C50.7041 157.735 51.0381 156.994 51.2021 155.939H52.8984ZM62.7334 160H61.1074V151.835H56.7305V160H55.0957V150.49H62.7334V160ZM73.377 155.351C73.377 156.798 73.0459 157.964 72.3838 158.849C71.7217 159.733 70.8252 160.176 69.6943 160.176C68.54 160.176 67.6318 159.81 66.9697 159.077V163.656H65.3438V150.49H66.8291L66.9082 151.545C67.5703 150.725 68.4902 150.314 69.668 150.314C70.8105 150.314 71.7129 150.745 72.375 151.606C73.043 152.468 73.377 153.666 73.377 155.201V155.351ZM71.751 155.166C71.751 154.094 71.5225 153.247 71.0654 152.626C70.6084 152.005 69.9814 151.694 69.1846 151.694C68.2002 151.694 67.4619 152.131 66.9697 153.004V157.548C67.4561 158.415 68.2002 158.849 69.2021 158.849C69.9814 158.849 70.5996 158.541 71.0566 157.926C71.5195 157.305 71.751 156.385 71.751 155.166ZM81.3223 160C81.2285 159.812 81.1523 159.479 81.0938 158.998C80.3379 159.783 79.4355 160.176 78.3867 160.176C77.4492 160.176 76.6787 159.912 76.0752 159.385C75.4775 158.852 75.1787 158.178 75.1787 157.363C75.1787 156.373 75.5537 155.605 76.3037 155.061C77.0596 154.51 78.1201 154.234 79.4854 154.234H81.0674V153.487C81.0674 152.919 80.8975 152.468 80.5576 152.134C80.2178 151.794 79.7168 151.624 79.0547 151.624C78.4746 151.624 77.9883 151.771 77.5957 152.063C77.2031 152.356 77.0068 152.711 77.0068 153.127H75.3721C75.3721 152.652 75.5391 152.195 75.873 151.756C76.2129 151.311 76.6699 150.959 77.2441 150.701C77.8242 150.443 78.46 150.314 79.1514 150.314C80.2471 150.314 81.1055 150.59 81.7266 151.141C82.3477 151.686 82.6699 152.438 82.6934 153.399V157.776C82.6934 158.649 82.8047 159.344 83.0273 159.859V160H81.3223ZM78.624 158.761C79.1338 158.761 79.6172 158.629 80.0742 158.365C80.5312 158.102 80.8623 157.759 81.0674 157.337V155.386H79.793C77.8008 155.386 76.8047 155.969 76.8047 157.135C76.8047 157.645 76.9746 158.043 77.3145 158.33C77.6543 158.617 78.0908 158.761 78.624 158.761ZM85.3916 160V150.49H89.1006C90.3662 150.49 91.3359 150.713 92.0098 151.158C92.6895 151.598 93.0293 152.245 93.0293 153.101C93.0293 153.54 92.8975 153.938 92.6338 154.296C92.3701 154.647 91.9805 154.917 91.4648 155.104C92.0391 155.239 92.499 155.503 92.8447 155.896C93.1963 156.288 93.3721 156.757 93.3721 157.302C93.3721 158.175 93.0498 158.843 92.4053 159.306C91.7666 159.769 90.8613 160 89.6895 160H85.3916ZM87.0176 155.825V158.69H89.707C90.3867 158.69 90.8936 158.564 91.2275 158.312C91.5674 158.061 91.7373 157.706 91.7373 157.249C91.7373 156.3 91.04 155.825 89.6455 155.825H87.0176ZM87.0176 154.524H89.1182C90.6416 154.524 91.4033 154.079 91.4033 153.188C91.4033 152.298 90.6826 151.838 89.2412 151.809H87.0176V154.524ZM95.0947 155.157C95.0947 154.226 95.2764 153.388 95.6396 152.644C96.0088 151.899 96.5186 151.325 97.1689 150.921C97.8252 150.517 98.5723 150.314 99.4102 150.314C100.705 150.314 101.751 150.763 102.548 151.659C103.351 152.556 103.752 153.748 103.752 155.236V155.351C103.752 156.276 103.573 157.108 103.216 157.847C102.864 158.579 102.357 159.15 101.695 159.561C101.039 159.971 100.283 160.176 99.4277 160.176C98.1387 160.176 97.0928 159.728 96.29 158.831C95.4932 157.935 95.0947 156.748 95.0947 155.271V155.157ZM96.7295 155.351C96.7295 156.405 96.9727 157.252 97.459 157.891C97.9512 158.529 98.6074 158.849 99.4277 158.849C100.254 158.849 100.91 158.526 101.396 157.882C101.883 157.231 102.126 156.323 102.126 155.157C102.126 154.114 101.877 153.271 101.379 152.626C100.887 151.976 100.23 151.65 99.4102 151.65C98.6074 151.65 97.96 151.97 97.4678 152.608C96.9756 153.247 96.7295 154.161 96.7295 155.351ZM112.972 160H111.337V156.555C110.622 156.742 109.89 156.836 109.14 156.836C107.95 156.836 107.042 156.531 106.415 155.922C105.794 155.312 105.478 154.445 105.466 153.32V150.481H107.092V153.373C107.121 154.791 107.804 155.5 109.14 155.5C109.89 155.5 110.622 155.406 111.337 155.219V150.49H112.972V160ZM123.352 160H121.726V155.939H117.357V160H115.723V150.49H117.357V154.612H121.726V150.49H123.352V160ZM132.123 150.49H133.749V160H132.123V153.065L127.737 160H126.111V150.49H127.737V157.434L132.123 150.49ZM139.321 155.948H138.135V160H136.5V150.49H138.135V154.516H139.198L142.397 150.49H144.366L140.604 155.061L144.683 160H142.617L139.321 155.948ZM154.359 158.849C154.939 158.849 155.446 158.673 155.88 158.321C156.313 157.97 156.554 157.53 156.601 157.003H158.139C158.109 157.548 157.922 158.066 157.576 158.559C157.23 159.051 156.768 159.443 156.188 159.736C155.613 160.029 155.004 160.176 154.359 160.176C153.064 160.176 152.033 159.745 151.266 158.884C150.504 158.017 150.123 156.833 150.123 155.333V155.061C150.123 154.135 150.293 153.312 150.633 152.591C150.973 151.87 151.459 151.311 152.092 150.912C152.73 150.514 153.483 150.314 154.351 150.314C155.417 150.314 156.302 150.634 157.005 151.272C157.714 151.911 158.092 152.74 158.139 153.76H156.601C156.554 153.145 156.319 152.641 155.897 152.248C155.481 151.85 154.966 151.65 154.351 151.65C153.524 151.65 152.883 151.949 152.426 152.547C151.975 153.139 151.749 153.997 151.749 155.122V155.43C151.749 156.525 151.975 157.369 152.426 157.961C152.877 158.553 153.521 158.849 154.359 158.849ZM170.584 150.49H172.21V160H170.584V153.065L166.198 160H164.572V150.49H166.198V157.434L170.584 150.49ZM182.59 160H180.964V155.939H176.596V160H174.961V150.49H176.596V154.612H180.964V150.49H182.59V160ZM184.857 155.421C184.857 153.833 185.165 152.585 185.78 151.677C186.396 150.769 187.239 150.314 188.312 150.314C188.81 150.314 189.246 150.399 189.621 150.569V146.5H191.247V150.622C191.657 150.417 192.138 150.314 192.688 150.314C193.767 150.314 194.613 150.769 195.229 151.677C195.844 152.585 196.151 153.895 196.151 155.605C196.151 157.006 195.844 158.119 195.229 158.945C194.619 159.771 193.778 160.185 192.706 160.185C192.138 160.185 191.651 160.091 191.247 159.903V163.656H189.621V159.93C189.234 160.1 188.792 160.185 188.294 160.185C187.228 160.185 186.387 159.771 185.771 158.945C185.162 158.119 184.857 156.988 184.857 155.553V155.421ZM194.525 155.421C194.525 154.226 194.32 153.3 193.91 152.644C193.5 151.981 192.935 151.65 192.214 151.65C191.845 151.65 191.522 151.709 191.247 151.826V158.708C191.511 158.808 191.839 158.857 192.231 158.857C192.958 158.857 193.521 158.576 193.919 158.014C194.323 157.451 194.525 156.587 194.525 155.421ZM186.483 155.605C186.483 156.672 186.674 157.48 187.055 158.031C187.436 158.582 187.983 158.857 188.698 158.857C189.038 158.857 189.346 158.805 189.621 158.699V151.8C189.375 151.7 189.073 151.65 188.716 151.65C188.001 151.65 187.45 151.97 187.063 152.608C186.677 153.247 186.483 154.246 186.483 155.605ZM197.839 155.157C197.839 154.226 198.021 153.388 198.384 152.644C198.753 151.899 199.263 151.325 199.913 150.921C200.569 150.517 201.316 150.314 202.154 150.314C203.449 150.314 204.495 150.763 205.292 151.659C206.095 152.556 206.496 153.748 206.496 155.236V155.351C206.496 156.276 206.317 157.108 205.96 157.847C205.608 158.579 205.102 159.15 204.439 159.561C203.783 159.971 203.027 160.176 202.172 160.176C200.883 160.176 199.837 159.728 199.034 158.831C198.237 157.935 197.839 156.748 197.839 155.271V155.157ZM199.474 155.351C199.474 156.405 199.717 157.252 200.203 157.891C200.695 158.529 201.352 158.849 202.172 158.849C202.998 158.849 203.654 158.526 204.141 157.882C204.627 157.231 204.87 156.323 204.87 155.157C204.87 154.114 204.621 153.271 204.123 152.626C203.631 151.976 202.975 151.65 202.154 151.65C201.352 151.65 200.704 151.97 200.212 152.608C199.72 153.247 199.474 154.161 199.474 155.351ZM216.568 155.351C216.568 156.798 216.237 157.964 215.575 158.849C214.913 159.733 214.017 160.176 212.886 160.176C211.731 160.176 210.823 159.81 210.161 159.077V163.656H208.535V150.49H210.021L210.1 151.545C210.762 150.725 211.682 150.314 212.859 150.314C214.002 150.314 214.904 150.745 215.566 151.606C216.234 152.468 216.568 153.666 216.568 155.201V155.351ZM214.942 155.166C214.942 154.094 214.714 153.247 214.257 152.626C213.8 152.005 213.173 151.694 212.376 151.694C211.392 151.694 210.653 152.131 210.161 153.004V157.548C210.647 158.415 211.392 158.849 212.394 158.849C213.173 158.849 213.791 158.541 214.248 157.926C214.711 157.305 214.942 156.385 214.942 155.166ZM224.118 157.847L227.353 150.49H229.383V160H227.757V153.083L224.681 160H223.556L220.418 152.934V160H218.792V150.49H220.901L224.118 157.847ZM237.873 160C237.779 159.812 237.703 159.479 237.645 158.998C236.889 159.783 235.986 160.176 234.938 160.176C234 160.176 233.229 159.912 232.626 159.385C232.028 158.852 231.729 158.178 231.729 157.363C231.729 156.373 232.104 155.605 232.854 155.061C233.61 154.51 234.671 154.234 236.036 154.234H237.618V153.487C237.618 152.919 237.448 152.468 237.108 152.134C236.769 151.794 236.268 151.624 235.605 151.624C235.025 151.624 234.539 151.771 234.146 152.063C233.754 152.356 233.558 152.711 233.558 153.127H231.923C231.923 152.652 232.09 152.195 232.424 151.756C232.764 151.311 233.221 150.959 233.795 150.701C234.375 150.443 235.011 150.314 235.702 150.314C236.798 150.314 237.656 150.59 238.277 151.141C238.898 151.686 239.221 152.438 239.244 153.399V157.776C239.244 158.649 239.355 159.344 239.578 159.859V160H237.873ZM235.175 158.761C235.685 158.761 236.168 158.629 236.625 158.365C237.082 158.102 237.413 157.759 237.618 157.337V155.386H236.344C234.352 155.386 233.355 155.969 233.355 157.135C233.355 157.645 233.525 158.043 233.865 158.33C234.205 158.617 234.642 158.761 235.175 158.761ZM241.934 150.49H243.568V158.673H247.945V150.49H249.571V158.673H250.705L250.547 162.821H249.088V160H241.934V150.49ZM258.615 150.49H260.241V160H258.615V153.065L254.229 160H252.604V150.49H254.229V157.434L258.615 150.49ZM266.798 160.176C265.509 160.176 264.46 159.754 263.651 158.91C262.843 158.061 262.438 156.927 262.438 155.509V155.21C262.438 154.267 262.617 153.426 262.975 152.688C263.338 151.943 263.842 151.363 264.486 150.947C265.137 150.525 265.84 150.314 266.596 150.314C267.832 150.314 268.793 150.722 269.479 151.536C270.164 152.351 270.507 153.517 270.507 155.034V155.711H264.064C264.088 156.648 264.36 157.407 264.882 157.987C265.409 158.562 266.077 158.849 266.886 158.849C267.46 158.849 267.946 158.731 268.345 158.497C268.743 158.263 269.092 157.952 269.391 157.565L270.384 158.339C269.587 159.563 268.392 160.176 266.798 160.176ZM266.596 151.65C265.939 151.65 265.389 151.891 264.943 152.371C264.498 152.846 264.223 153.514 264.117 154.375H268.881V154.252C268.834 153.426 268.611 152.787 268.213 152.336C267.814 151.879 267.275 151.65 266.596 151.65ZM278.549 150.49H280.175V160H278.549V153.065L274.163 160H272.537V150.49H274.163V157.434L278.549 150.49ZM278.988 147.027C278.988 147.736 278.745 148.308 278.259 148.741C277.778 149.169 277.146 149.383 276.36 149.383C275.575 149.383 274.939 149.166 274.453 148.732C273.967 148.299 273.724 147.73 273.724 147.027H275.051C275.051 147.438 275.162 147.76 275.385 147.994C275.607 148.223 275.933 148.337 276.36 148.337C276.771 148.337 277.09 148.223 277.318 147.994C277.553 147.766 277.67 147.443 277.67 147.027H278.988ZM286.819 155.157C286.819 154.226 287.001 153.388 287.364 152.644C287.733 151.899 288.243 151.325 288.894 150.921C289.55 150.517 290.297 150.314 291.135 150.314C292.43 150.314 293.476 150.763 294.272 151.659C295.075 152.556 295.477 153.748 295.477 155.236V155.351C295.477 156.276 295.298 157.108 294.94 157.847C294.589 158.579 294.082 159.15 293.42 159.561C292.764 159.971 292.008 160.176 291.152 160.176C289.863 160.176 288.817 159.728 288.015 158.831C287.218 157.935 286.819 156.748 286.819 155.271V155.157ZM288.454 155.351C288.454 156.405 288.697 157.252 289.184 157.891C289.676 158.529 290.332 158.849 291.152 158.849C291.979 158.849 292.635 158.526 293.121 157.882C293.607 157.231 293.851 156.323 293.851 155.157C293.851 154.114 293.602 153.271 293.104 152.626C292.611 151.976 291.955 151.65 291.135 151.65C290.332 151.65 289.685 151.97 289.192 152.608C288.7 153.247 288.454 154.161 288.454 155.351ZM301.69 151.035C302.886 151.035 303.841 151.437 304.556 152.239C305.276 153.036 305.637 154.088 305.637 155.395V155.544C305.637 156.44 305.464 157.243 305.118 157.952C304.772 158.655 304.274 159.203 303.624 159.596C302.979 159.982 302.235 160.176 301.392 160.176C300.114 160.176 299.086 159.751 298.307 158.901C297.527 158.046 297.138 156.9 297.138 155.465V154.674C297.138 152.676 297.507 151.088 298.245 149.91C298.989 148.732 300.085 148.015 301.532 147.757C302.353 147.61 302.906 147.432 303.193 147.221C303.48 147.01 303.624 146.72 303.624 146.351H304.96C304.96 147.083 304.793 147.654 304.459 148.064C304.131 148.475 303.604 148.765 302.877 148.935L301.664 149.207C300.697 149.436 299.971 149.822 299.484 150.367C299.004 150.906 298.69 151.627 298.544 152.529C299.405 151.533 300.454 151.035 301.69 151.035ZM301.374 152.371C300.577 152.371 299.944 152.641 299.476 153.18C299.007 153.713 298.772 154.454 298.772 155.403V155.544C298.772 156.563 299.007 157.372 299.476 157.97C299.95 158.562 300.589 158.857 301.392 158.857C302.2 158.857 302.839 158.559 303.308 157.961C303.776 157.363 304.011 156.49 304.011 155.342C304.011 154.445 303.773 153.728 303.299 153.188C302.83 152.644 302.188 152.371 301.374 152.371ZM318.082 150.49H319.708V160H318.082V153.065L313.696 160H312.07V150.49H313.696V157.434L318.082 150.49ZM328.462 151.835H324.076V160H322.441V150.49H328.462V151.835ZM337.91 155.351C337.91 156.798 337.579 157.964 336.917 158.849C336.255 159.733 335.358 160.176 334.228 160.176C333.073 160.176 332.165 159.81 331.503 159.077V163.656H329.877V150.49H331.362L331.441 151.545C332.104 150.725 333.023 150.314 334.201 150.314C335.344 150.314 336.246 150.745 336.908 151.606C337.576 152.468 337.91 153.666 337.91 155.201V155.351ZM336.284 155.166C336.284 154.094 336.056 153.247 335.599 152.626C335.142 152.005 334.515 151.694 333.718 151.694C332.733 151.694 331.995 152.131 331.503 153.004V157.548C331.989 158.415 332.733 158.849 333.735 158.849C334.515 158.849 335.133 158.541 335.59 157.926C336.053 157.305 336.284 156.385 336.284 155.166ZM339.554 155.157C339.554 154.226 339.735 153.388 340.099 152.644C340.468 151.899 340.978 151.325 341.628 150.921C342.284 150.517 343.031 150.314 343.869 150.314C345.164 150.314 346.21 150.763 347.007 151.659C347.81 152.556 348.211 153.748 348.211 155.236V155.351C348.211 156.276 348.032 157.108 347.675 157.847C347.323 158.579 346.816 159.15 346.154 159.561C345.498 159.971 344.742 160.176 343.887 160.176C342.598 160.176 341.552 159.728 340.749 158.831C339.952 157.935 339.554 156.748 339.554 155.271V155.157ZM341.188 155.351C341.188 156.405 341.432 157.252 341.918 157.891C342.41 158.529 343.066 158.849 343.887 158.849C344.713 158.849 345.369 158.526 345.855 157.882C346.342 157.231 346.585 156.323 346.585 155.157C346.585 154.114 346.336 153.271 345.838 152.626C345.346 151.976 344.689 151.65 343.869 151.65C343.066 151.65 342.419 151.97 341.927 152.608C341.435 153.247 341.188 154.161 341.188 155.351ZM350.399 160V150.49H354.108C355.374 150.49 356.344 150.713 357.018 151.158C357.697 151.598 358.037 152.245 358.037 153.101C358.037 153.54 357.905 153.938 357.642 154.296C357.378 154.647 356.988 154.917 356.473 155.104C357.047 155.239 357.507 155.503 357.853 155.896C358.204 156.288 358.38 156.757 358.38 157.302C358.38 158.175 358.058 158.843 357.413 159.306C356.774 159.769 355.869 160 354.697 160H350.399ZM352.025 155.825V158.69H354.715C355.395 158.69 355.901 158.564 356.235 158.312C356.575 158.061 356.745 157.706 356.745 157.249C356.745 156.3 356.048 155.825 354.653 155.825H352.025ZM352.025 154.524H354.126C355.649 154.524 356.411 154.079 356.411 153.188C356.411 152.298 355.69 151.838 354.249 151.809H352.025V154.524ZM360.103 155.157C360.103 154.226 360.284 153.388 360.647 152.644C361.017 151.899 361.526 151.325 362.177 150.921C362.833 150.517 363.58 150.314 364.418 150.314C365.713 150.314 366.759 150.763 367.556 151.659C368.358 152.556 368.76 153.748 368.76 155.236V155.351C368.76 156.276 368.581 157.108 368.224 157.847C367.872 158.579 367.365 159.15 366.703 159.561C366.047 159.971 365.291 160.176 364.436 160.176C363.146 160.176 362.101 159.728 361.298 158.831C360.501 157.935 360.103 156.748 360.103 155.271V155.157ZM361.737 155.351C361.737 156.405 361.98 157.252 362.467 157.891C362.959 158.529 363.615 158.849 364.436 158.849C365.262 158.849 365.918 158.526 366.404 157.882C366.891 157.231 367.134 156.323 367.134 155.157C367.134 154.114 366.885 153.271 366.387 152.626C365.895 151.976 365.238 151.65 364.418 151.65C363.615 151.65 362.968 151.97 362.476 152.608C361.983 153.247 361.737 154.161 361.737 155.351ZM376.274 157.847L379.509 150.49H381.539V160H379.913V153.083L376.837 160H375.712L372.574 152.934V160H370.948V150.49H373.058L376.274 157.847ZM394.099 157.847L397.333 150.49H399.363V160H397.737V153.083L394.661 160H393.536L390.398 152.934V160H388.772V150.49H390.882L394.099 157.847ZM408.135 150.49H409.761V160H408.135V153.065L403.749 160H402.123V150.49H403.749V157.434L408.135 150.49ZM420.404 155.351C420.404 156.798 420.073 157.964 419.411 158.849C418.749 159.733 417.853 160.176 416.722 160.176C415.567 160.176 414.659 159.81 413.997 159.077V163.656H412.371V150.49H413.856L413.936 151.545C414.598 150.725 415.518 150.314 416.695 150.314C417.838 150.314 418.74 150.745 419.402 151.606C420.07 152.468 420.404 153.666 420.404 155.201V155.351ZM418.778 155.166C418.778 154.094 418.55 153.247 418.093 152.626C417.636 152.005 417.009 151.694 416.212 151.694C415.228 151.694 414.489 152.131 413.997 153.004V157.548C414.483 158.415 415.228 158.849 416.229 158.849C417.009 158.849 417.627 158.541 418.084 157.926C418.547 157.305 418.778 156.385 418.778 155.166ZM426.425 160.176C425.136 160.176 424.087 159.754 423.278 158.91C422.47 158.061 422.065 156.927 422.065 155.509V155.21C422.065 154.267 422.244 153.426 422.602 152.688C422.965 151.943 423.469 151.363 424.113 150.947C424.764 150.525 425.467 150.314 426.223 150.314C427.459 150.314 428.42 150.722 429.105 151.536C429.791 152.351 430.134 153.517 430.134 155.034V155.711H423.691C423.715 156.648 423.987 157.407 424.509 157.987C425.036 158.562 425.704 158.849 426.513 158.849C427.087 158.849 427.573 158.731 427.972 158.497C428.37 158.263 428.719 157.952 429.018 157.565L430.011 158.339C429.214 159.563 428.019 160.176 426.425 160.176ZM426.223 151.65C425.566 151.65 425.016 151.891 424.57 152.371C424.125 152.846 423.85 153.514 423.744 154.375H428.508V154.252C428.461 153.426 428.238 152.787 427.84 152.336C427.441 151.879 426.902 151.65 426.223 151.65Z" fill="white"/>
<g clip-path="url(#clip2_14_342)">
<path d="M29.3333 158.333V142.333C29.3333 140.867 28.1333 139.667 26.6666 139.667H10.6666C9.19996 139.667 7.99996 140.867 7.99996 142.333V158.333C7.99996 159.8 9.19996 161 10.6666 161H26.6666C28.1333 161 29.3333 159.8 29.3333 158.333ZM14.6666 153L17.3733 156.613L21.3333 151.667L26.6666 158.333H10.6666L14.6666 153ZM2.66663 145V163.667C2.66663 165.133 3.86663 166.333 5.33329 166.333H24V163.667H5.33329V145H2.66663Z" fill="#F8F200"/>
</g>
<path d="M1.52344 22V4.9375H7.5C9.57031 4.9375 11.1406 5.33594 12.2109 6.13281C13.2812 6.92187 13.8164 8.08203 13.8164 9.61328C13.8164 10.4492 13.6016 11.1875 13.1719 11.8281C12.7422 12.4609 12.1445 12.9258 11.3789 13.2227C12.2539 13.4414 12.9414 13.8828 13.4414 14.5469C13.9492 15.2109 14.2031 16.0234 14.2031 16.9844C14.2031 18.625 13.6797 19.8672 12.6328 20.7109C11.5859 21.5547 10.0938 21.9844 8.15625 22H1.52344ZM5.03906 14.5703V19.1758H8.05078C8.87891 19.1758 9.52344 18.9805 9.98438 18.5898C10.4531 18.1914 10.6875 17.6445 10.6875 16.9492C10.6875 15.3867 9.87891 14.5938 8.26172 14.5703H5.03906ZM5.03906 12.0859H7.64062C9.41406 12.0547 10.3008 11.3477 10.3008 9.96484C10.3008 9.19141 10.0742 8.63672 9.62109 8.30078C9.17578 7.95703 8.46875 7.78516 7.5 7.78516H5.03906V12.0859ZM27.5742 17.3242H26.2148V22H22.8281V9.32031H26.2148V14.0898H27.4219L30.1875 9.32031H34.4648L30.3164 15.3555L34.8516 22H30.3398L27.5742 17.3242ZM34.9219 15.543C34.9219 14.2852 35.1641 13.1641 35.6484 12.1797C36.1328 11.1953 36.8281 10.4336 37.7344 9.89453C38.6484 9.35547 39.707 9.08594 40.9102 9.08594C42.6211 9.08594 44.0156 9.60938 45.0938 10.6562C46.1797 11.7031 46.7852 13.125 46.9102 14.9219L46.9336 15.7891C46.9336 17.7344 46.3906 19.2969 45.3047 20.4766C44.2188 21.6484 42.7617 22.2344 40.9336 22.2344C39.1055 22.2344 37.6445 21.6484 36.5508 20.4766C35.4648 19.3047 34.9219 17.7109 34.9219 15.6953V15.543ZM38.3086 15.7891C38.3086 16.9922 38.5352 17.9141 38.9883 18.5547C39.4414 19.1875 40.0898 19.5039 40.9336 19.5039C41.7539 19.5039 42.3945 19.1914 42.8555 18.5664C43.3164 17.9336 43.5469 16.9258 43.5469 15.543C43.5469 14.3633 43.3164 13.4492 42.8555 12.8008C42.3945 12.1523 41.7461 11.8281 40.9102 11.8281C40.082 11.8281 39.4414 12.1523 38.9883 12.8008C38.5352 13.4414 38.3086 14.4375 38.3086 15.7891ZM56.7422 18.0039L60.0586 9.32031H64.3008V22H60.9141V14.2188L57.8789 22H55.6055L52.6289 14.3477V22H49.2422V9.32031H53.4492L56.7422 18.0039ZM78.2812 22H74.8828V12.0625H70.6406V22H67.2539V9.32031H78.2812V22ZM91.8984 9.32031V22H88.5117V12.0625H85.5234L85.3125 15.9766C85.1797 18.0625 84.7695 19.582 84.082 20.5352C83.3945 21.4883 82.3711 21.9766 81.0117 22H79.8633L79.8281 19.2461L80.25 19.2109C80.8594 19.1641 81.3047 18.8047 81.5859 18.1328C81.8672 17.4609 82.043 16.3164 82.1133 14.6992L82.3477 9.32031H91.8984ZM100.348 22.2344C98.4883 22.2344 96.9727 21.6641 95.8008 20.5234C94.6367 19.3828 94.0547 17.8633 94.0547 15.9648V15.6367C94.0547 14.3633 94.3008 13.2266 94.793 12.2266C95.2852 11.2188 95.9805 10.4453 96.8789 9.90625C97.7852 9.35938 98.8164 9.08594 99.9727 9.08594C101.707 9.08594 103.07 9.63281 104.062 10.7266C105.062 11.8203 105.562 13.3711 105.562 15.3789V16.7617H97.4883C97.5977 17.5898 97.9258 18.2539 98.4727 18.7539C99.0273 19.2539 99.7266 19.5039 100.57 19.5039C101.875 19.5039 102.895 19.0312 103.629 18.0859L105.293 19.9492C104.785 20.668 104.098 21.2305 103.23 21.6367C102.363 22.0352 101.402 22.2344 100.348 22.2344ZM99.9609 11.8281C99.2891 11.8281 98.7422 12.0547 98.3203 12.5078C97.9062 12.9609 97.6406 13.6094 97.5234 14.4531H102.234V14.1836C102.219 13.4336 102.016 12.8555 101.625 12.4492C101.234 12.0352 100.68 11.8281 99.9609 11.8281ZM112.465 17.3242H111.105V22H107.719V9.32031H111.105V14.0898H112.312L115.078 9.32031H119.355L115.207 15.3555L119.742 22H115.23L112.465 17.3242ZM131.543 12.0391H127.477V22H124.078V12.0391H120.082V9.32031H131.543V12.0391ZM139.453 22V9.32031H144.75C146.477 9.32031 147.801 9.625 148.723 10.2344C149.645 10.8438 150.105 11.7188 150.105 12.8594C150.105 13.4453 149.91 13.9727 149.52 14.4414C149.137 14.9023 148.574 15.2578 147.832 15.5078C148.738 15.6797 149.449 16.0195 149.965 16.5273C150.488 17.0273 150.75 17.6445 150.75 18.3789C150.75 19.5586 150.305 20.457 149.414 21.0742C148.531 21.6914 147.246 22 145.559 22H139.453ZM142.84 16.7383V19.293H145.57C146.766 19.293 147.363 18.875 147.363 18.0391C147.363 17.1875 146.793 16.7539 145.652 16.7383H142.84ZM142.84 14.4648H144.938C146.125 14.4492 146.719 14.0664 146.719 13.3164C146.719 12.8555 146.555 12.5273 146.227 12.332C145.906 12.1367 145.414 12.0391 144.75 12.0391H142.84V14.4648ZM157.652 13.1055L159.785 9.32031H163.406L159.797 15.5312L163.559 22H159.926L157.664 18.0156L155.414 22H151.77L155.531 15.5312L151.934 9.32031H155.566L157.652 13.1055ZM164.039 15.543C164.039 14.2852 164.281 13.1641 164.766 12.1797C165.25 11.1953 165.945 10.4336 166.852 9.89453C167.766 9.35547 168.824 9.08594 170.027 9.08594C171.738 9.08594 173.133 9.60938 174.211 10.6562C175.297 11.7031 175.902 13.125 176.027 14.9219L176.051 15.7891C176.051 17.7344 175.508 19.2969 174.422 20.4766C173.336 21.6484 171.879 22.2344 170.051 22.2344C168.223 22.2344 166.762 21.6484 165.668 20.4766C164.582 19.3047 164.039 17.7109 164.039 15.6953V15.543ZM167.426 15.7891C167.426 16.9922 167.652 17.9141 168.105 18.5547C168.559 19.1875 169.207 19.5039 170.051 19.5039C170.871 19.5039 171.512 19.1914 171.973 18.5664C172.434 17.9336 172.664 16.9258 172.664 15.543C172.664 14.3633 172.434 13.4492 171.973 12.8008C171.512 12.1523 170.863 11.8281 170.027 11.8281C169.199 11.8281 168.559 12.1523 168.105 12.8008C167.652 13.4414 167.426 14.4375 167.426 15.7891ZM177.469 19.2695C178.234 18.457 178.754 17.6523 179.027 16.8555C179.301 16.0586 179.453 14.9297 179.484 13.4688L179.578 9.32031H188.906V19.2695H190.734V25.8086H187.348V22H179.836V25.8086H176.379V19.2695H177.469ZM181.465 19.2695H185.531V12.1211H182.895L182.871 13.6445C182.801 15.9727 182.332 17.8477 181.465 19.2695ZM199.887 9.32031H203.273V22H199.887V14.1719L195.645 22H192.246V9.32031H195.645V17.1367L199.887 9.32031ZM216.387 12.0391H212.32V22H208.922V12.0391H204.926V9.32031H216.387V12.0391ZM218.262 20.3359C218.262 19.7969 218.441 19.3594 218.801 19.0234C219.168 18.6875 219.625 18.5195 220.172 18.5195C220.727 18.5195 221.184 18.6875 221.543 19.0234C221.91 19.3594 222.094 19.7969 222.094 20.3359C222.094 20.8672 221.914 21.3008 221.555 21.6367C221.195 21.9648 220.734 22.1289 220.172 22.1289C219.617 22.1289 219.16 21.9648 218.801 21.6367C218.441 21.3008 218.262 20.8672 218.262 20.3359ZM218.262 10.7383C218.262 10.1992 218.441 9.76172 218.801 9.42578C219.168 9.08984 219.625 8.92188 220.172 8.92188C220.727 8.92188 221.184 9.08984 221.543 9.42578C221.91 9.76172 222.094 10.1992 222.094 10.7383C222.094 11.2695 221.914 11.7031 221.555 12.0391C221.195 12.3672 220.734 12.5312 220.172 12.5312C219.617 12.5312 219.16 12.3672 218.801 12.0391C218.441 11.7031 218.262 11.2695 218.262 10.7383Z" fill="#52BEDC"/>
<defs>
<clipPath id="clip0_14_342">
<rect width="32" height="32" fill="white" transform="translate(0 90)"/>
</clipPath>
<clipPath id="clip1_14_342">
<rect width="32" height="32" fill="white" transform="translate(0 43)"/>
</clipPath>
<clipPath id="clip2_14_342">
<rect width="32" height="32" fill="white" transform="translate(0 137)"/>
</clipPath>
</defs>
</svg>
