<svg width="251" height="25" viewBox="0 0 251 25" fill="none" xmlns="http://www.w3.org/2000/svg">
<path d="M0.523438 19V1.9375H6.5C8.57031 1.9375 10.1406 2.33594 11.2109 3.13281C12.2812 3.92187 12.8164 5.08203 12.8164 6.61328C12.8164 7.44922 12.6016 8.1875 12.1719 8.82812C11.7422 9.46094 11.1445 9.92578 10.3789 10.2227C11.2539 10.4414 11.9414 10.8828 12.4414 11.5469C12.9492 12.2109 13.2031 13.0234 13.2031 13.9844C13.2031 15.625 12.6797 16.8672 11.6328 17.7109C10.5859 18.5547 9.09375 18.9844 7.15625 19H0.523438ZM4.03906 11.5703V16.1758H7.05078C7.87891 16.1758 8.52344 15.9805 8.98438 15.5898C9.45312 15.1914 9.6875 14.6445 9.6875 13.9492C9.6875 12.3867 8.87891 11.5938 7.26172 11.5703H4.03906ZM4.03906 9.08594H6.64062C8.41406 9.05469 9.30078 8.34766 9.30078 6.96484C9.30078 6.19141 9.07422 5.63672 8.62109 5.30078C8.17578 4.95703 7.46875 4.78516 6.5 4.78516H4.03906V9.08594ZM19.25 10.0352H21.6758C22.7695 10.0352 23.7305 10.2188 24.5586 10.5859C25.3867 10.9531 26.0195 11.4805 26.457 12.168C26.9023 12.8477 27.125 13.6406 27.125 14.5469C27.125 15.8828 26.6289 16.9609 25.6367 17.7812C24.6523 18.5938 23.3086 19 21.6055 19H15.8516V6.32031H19.25V10.0352ZM32.5156 19H29.1289V6.32031H32.5156V19ZM19.25 12.7539V16.293H21.6523C22.3242 16.293 22.8398 16.1367 23.1992 15.8242C23.5586 15.5117 23.7383 15.0859 23.7383 14.5469C23.7383 14 23.5625 13.5664 23.2109 13.2461C22.8594 12.918 22.3398 12.7539 21.6523 12.7539H19.25ZM41.7969 7.02344C43.4219 7.02344 44.7188 7.5625 45.6875 8.64062C46.6562 9.71875 47.1406 11.1836 47.1406 13.0352V13.1992C47.1406 15.0273 46.6016 16.4922 45.5234 17.5938C44.4453 18.6953 42.9961 19.2461 41.1758 19.2461C39.3477 19.2461 37.8906 18.6523 36.8047 17.4648C35.7266 16.2695 35.1875 14.6484 35.1875 12.6016V12.0391C35.2031 9.1875 35.6836 6.95703 36.6289 5.34766C37.582 3.73047 39.0117 2.71094 40.918 2.28906C41.918 2.07031 42.5625 1.85547 42.8516 1.64453C43.1406 1.42578 43.2852 1.125 43.2852 0.742188H46.0273C46.0273 1.96875 45.6953 2.89062 45.0312 3.50781C44.375 4.125 43.2031 4.60156 41.5156 4.9375C40.5156 5.14062 39.7266 5.53516 39.1484 6.12109C38.5703 6.70703 38.1797 7.53125 37.9766 8.59375C39.0547 7.54688 40.3281 7.02344 41.7969 7.02344ZM41.1523 9.76562C40.3477 9.76562 39.7148 10.0352 39.2539 10.5742C38.8008 11.1133 38.5742 11.9883 38.5742 13.1992C38.5742 14.2773 38.7969 15.1016 39.2422 15.6719C39.6875 16.2344 40.332 16.5156 41.1758 16.5156C41.9961 16.5156 42.6289 16.2383 43.0742 15.6836C43.5195 15.1289 43.7461 14.3125 43.7539 13.2344V12.9531C43.7539 11.9141 43.5234 11.125 43.0625 10.5859C42.6094 10.0391 41.9727 9.76562 41.1523 9.76562ZM55.0039 19.2344C53.1445 19.2344 51.6289 18.6641 50.457 17.5234C49.293 16.3828 48.7109 14.8633 48.7109 12.9648V12.6367C48.7109 11.3633 48.957 10.2266 49.4492 9.22656C49.9414 8.21875 50.6367 7.44531 51.5352 6.90625C52.4414 6.35938 53.4727 6.08594 54.6289 6.08594C56.3633 6.08594 57.7266 6.63281 58.7188 7.72656C59.7188 8.82031 60.2188 10.3711 60.2188 12.3789V13.7617H52.1445C52.2539 14.5898 52.582 15.2539 53.1289 15.7539C53.6836 16.2539 54.3828 16.5039 55.2266 16.5039C56.5312 16.5039 57.5508 16.0312 58.2852 15.0859L59.9492 16.9492C59.4414 17.668 58.7539 18.2305 57.8867 18.6367C57.0195 19.0352 56.0586 19.2344 55.0039 19.2344ZM54.6172 8.82812C53.9453 8.82812 53.3984 9.05469 52.9766 9.50781C52.5625 9.96094 52.2969 10.6094 52.1797 11.4531H56.8906V11.1836C56.875 10.4336 56.6719 9.85547 56.2812 9.44922C55.8906 9.03516 55.3359 8.82812 54.6172 8.82812ZM73.5664 12.7773C73.5664 14.7305 73.1211 16.2969 72.2305 17.4766C71.3477 18.6484 70.1523 19.2344 68.6445 19.2344C67.3633 19.2344 66.3281 18.7891 65.5391 17.8984V23.875H62.1523V6.32031H65.293L65.4102 7.5625C66.2305 6.57812 67.3008 6.08594 68.6211 6.08594C70.1836 6.08594 71.3984 6.66406 72.2656 7.82031C73.1328 8.97656 73.5664 10.5703 73.5664 12.6016V12.7773ZM70.1797 12.5312C70.1797 11.3516 69.9688 10.4414 69.5469 9.80078C69.1328 9.16016 68.5273 8.83984 67.7305 8.83984C66.668 8.83984 65.9375 9.24609 65.5391 10.0586V15.25C65.9531 16.0859 66.6914 16.5039 67.7539 16.5039C69.3711 16.5039 70.1797 15.1797 70.1797 12.5312ZM83.3164 6.32031H86.7031V19H83.3164V11.1719L79.0742 19H75.6758V6.32031H79.0742V14.1367L83.3164 6.32031ZM99.8164 9.03906H95.75V19H92.3516V9.03906H88.3555V6.32031H99.8164V9.03906ZM106.613 19.2344C104.754 19.2344 103.238 18.6641 102.066 17.5234C100.902 16.3828 100.32 14.8633 100.32 12.9648V12.6367C100.32 11.3633 100.566 10.2266 101.059 9.22656C101.551 8.21875 102.246 7.44531 103.145 6.90625C104.051 6.35938 105.082 6.08594 106.238 6.08594C107.973 6.08594 109.336 6.63281 110.328 7.72656C111.328 8.82031 111.828 10.3711 111.828 12.3789V13.7617H103.754C103.863 14.5898 104.191 15.2539 104.738 15.7539C105.293 16.2539 105.992 16.5039 106.836 16.5039C108.141 16.5039 109.16 16.0312 109.895 15.0859L111.559 16.9492C111.051 17.668 110.363 18.2305 109.496 18.6367C108.629 19.0352 107.668 19.2344 106.613 19.2344ZM106.227 8.82812C105.555 8.82812 105.008 9.05469 104.586 9.50781C104.172 9.96094 103.906 10.6094 103.789 11.4531H108.5V11.1836C108.484 10.4336 108.281 9.85547 107.891 9.44922C107.5 9.03516 106.945 8.82812 106.227 8.82812ZM130.766 19H127.367V9.0625H123.125V19H119.738V6.32031H130.766V19ZM144.383 6.32031V19H140.996V9.0625H138.008L137.797 12.9766C137.664 15.0625 137.254 16.582 136.566 17.5352C135.879 18.4883 134.855 18.9766 133.496 19H132.348L132.312 16.2461L132.734 16.2109C133.344 16.1641 133.789 15.8047 134.07 15.1328C134.352 14.4609 134.527 13.3164 134.598 11.6992L134.832 6.32031H144.383ZM154.344 19C154.188 18.6953 154.074 18.3164 154.004 17.8633C153.184 18.7773 152.117 19.2344 150.805 19.2344C149.562 19.2344 148.531 18.875 147.711 18.1562C146.898 17.4375 146.492 16.5312 146.492 15.4375C146.492 14.0938 146.988 13.0625 147.98 12.3438C148.98 11.625 150.422 11.2617 152.305 11.2539H153.863V10.5273C153.863 9.94141 153.711 9.47266 153.406 9.12109C153.109 8.76953 152.637 8.59375 151.988 8.59375C151.418 8.59375 150.969 8.73047 150.641 9.00391C150.32 9.27734 150.16 9.65234 150.16 10.1289H146.773C146.773 9.39453 147 8.71484 147.453 8.08984C147.906 7.46484 148.547 6.97656 149.375 6.625C150.203 6.26562 151.133 6.08594 152.164 6.08594C153.727 6.08594 154.965 6.48047 155.879 7.26953C156.801 8.05078 157.262 9.15234 157.262 10.5742V16.0703C157.27 17.2734 157.438 18.1836 157.766 18.8008V19H154.344ZM151.543 16.6445C152.043 16.6445 152.504 16.5352 152.926 16.3164C153.348 16.0898 153.66 15.7891 153.863 15.4141V13.2344H152.598C150.902 13.2344 150 13.8203 149.891 14.9922L149.879 15.1914C149.879 15.6133 150.027 15.9609 150.324 16.2344C150.621 16.5078 151.027 16.6445 151.543 16.6445ZM170.199 9.03906H166.133V19H162.734V9.03906H158.738V6.32031H170.199V9.03906ZM170.656 12.7539C170.656 10.7148 171.07 9.09375 171.898 7.89062C172.734 6.6875 173.883 6.08594 175.344 6.08594C175.914 6.08594 176.434 6.19922 176.902 6.42578V1H180.289V6.4375C180.773 6.20312 181.309 6.08594 181.895 6.08594C183.363 6.08594 184.512 6.6875 185.34 7.89062C186.176 9.08594 186.594 10.7891 186.594 13C186.594 14.9141 186.176 16.4336 185.34 17.5586C184.504 18.6758 183.363 19.2344 181.918 19.2344C181.316 19.2344 180.773 19.125 180.289 18.9062V23.875H176.902V18.918C176.434 19.1289 175.906 19.2344 175.32 19.2344C173.953 19.2344 172.855 18.7227 172.027 17.6992C171.199 16.6758 170.746 15.2734 170.668 13.4922L170.656 12.7539ZM183.195 12.7539C183.195 11.4883 183.004 10.5195 182.621 9.84766C182.238 9.16797 181.699 8.82812 181.004 8.82812C180.785 8.82812 180.547 8.85547 180.289 8.91016V16.4453C180.508 16.4922 180.754 16.5156 181.027 16.5156C182.355 16.5156 183.074 15.5078 183.184 13.4922L183.195 12.7539ZM174.043 13C174.043 15.3359 174.758 16.5039 176.188 16.5039C176.484 16.5039 176.723 16.4844 176.902 16.4453V8.91016C176.645 8.85547 176.414 8.82812 176.211 8.82812C175.516 8.82812 174.98 9.16016 174.605 9.82422C174.23 10.4805 174.043 11.5391 174.043 13ZM188.164 12.543C188.164 11.2852 188.406 10.1641 188.891 9.17969C189.375 8.19531 190.07 7.43359 190.977 6.89453C191.891 6.35547 192.949 6.08594 194.152 6.08594C195.863 6.08594 197.258 6.60938 198.336 7.65625C199.422 8.70312 200.027 10.125 200.152 11.9219L200.176 12.7891C200.176 14.7344 199.633 16.2969 198.547 17.4766C197.461 18.6484 196.004 19.2344 194.176 19.2344C192.348 19.2344 190.887 18.6484 189.793 17.4766C188.707 16.3047 188.164 14.7109 188.164 12.6953V12.543ZM191.551 12.7891C191.551 13.9922 191.777 14.9141 192.23 15.5547C192.684 16.1875 193.332 16.5039 194.176 16.5039C194.996 16.5039 195.637 16.1914 196.098 15.5664C196.559 14.9336 196.789 13.9258 196.789 12.543C196.789 11.3633 196.559 10.4492 196.098 9.80078C195.637 9.15234 194.988 8.82812 194.152 8.82812C193.324 8.82812 192.684 9.15234 192.23 9.80078C191.777 10.4414 191.551 11.4375 191.551 12.7891ZM213.676 12.7773C213.676 14.7305 213.23 16.2969 212.34 17.4766C211.457 18.6484 210.262 19.2344 208.754 19.2344C207.473 19.2344 206.438 18.7891 205.648 17.8984V23.875H202.262V6.32031H205.402L205.52 7.5625C206.34 6.57812 207.41 6.08594 208.73 6.08594C210.293 6.08594 211.508 6.66406 212.375 7.82031C213.242 8.97656 213.676 10.5703 213.676 12.6016V12.7773ZM210.289 12.5312C210.289 11.3516 210.078 10.4414 209.656 9.80078C209.242 9.16016 208.637 8.83984 207.84 8.83984C206.777 8.83984 206.047 9.24609 205.648 10.0586V15.25C206.062 16.0859 206.801 16.5039 207.863 16.5039C209.48 16.5039 210.289 15.1797 210.289 12.5312ZM223.508 15.0039L226.824 6.32031H231.066V19H227.68V11.2188L224.645 19H222.371L219.395 11.3477V19H216.008V6.32031H220.215L223.508 15.0039ZM238.754 14.207L241.098 6.32031H244.73L239.633 20.9688L239.352 21.6367C238.594 23.293 237.344 24.1211 235.602 24.1211C235.109 24.1211 234.609 24.0469 234.102 23.8984V21.332L234.617 21.3438C235.258 21.3438 235.734 21.2461 236.047 21.0508C236.367 20.8555 236.617 20.5312 236.797 20.0781L237.195 19.0352L232.754 6.32031H236.398L238.754 14.207ZM246.23 17.3359C246.23 16.7969 246.41 16.3594 246.77 16.0234C247.137 15.6875 247.594 15.5195 248.141 15.5195C248.695 15.5195 249.152 15.6875 249.512 16.0234C249.879 16.3594 250.062 16.7969 250.062 17.3359C250.062 17.8672 249.883 18.3008 249.523 18.6367C249.164 18.9648 248.703 19.1289 248.141 19.1289C247.586 19.1289 247.129 18.9648 246.77 18.6367C246.41 18.3008 246.23 17.8672 246.23 17.3359ZM246.23 7.73828C246.23 7.19922 246.41 6.76172 246.77 6.42578C247.137 6.08984 247.594 5.92188 248.141 5.92188C248.695 5.92188 249.152 6.08984 249.512 6.42578C249.879 6.76172 250.062 7.19922 250.062 7.73828C250.062 8.26953 249.883 8.70312 249.523 9.03906C249.164 9.36719 248.703 9.53125 248.141 9.53125C247.586 9.53125 247.129 9.36719 246.77 9.03906C246.41 8.70312 246.23 8.26953 246.23 7.73828Z" fill="#52BEDC"/>
</svg>
